<svg xmlns="http://www.w3.org/2000/svg" viewBox="0 0 100 100">
  <circle cx="97.58214946078384" cy="34.03930993765446" fill="#fffa" r="0.09283458739308353"/><circle cx="2.733018056539016" cy="78.70416283561046" fill="#fff4" r="0.2253274932809909"/><circle cx="45.100601648374536" cy="83.41767178579047" fill="#fffa" r="0.006634064504906556"/><circle cx="99.79330937513488" cy="79.08268654999888" fill="#fff1" r="0.07850555727659483"/><circle cx="38.35758556302974" cy="59.31677031557947" fill="#fffa" r="0.176359310843592"/><circle cx="54.92571843127164" cy="67.60711182882918" fill="#fffb" r="0.10235567196673592"/><circle cx="84.7968340829788" cy="10.076035179019026" fill="#fff0" r="0.06382560769511963"/><circle cx="79.39885670555384" cy="84.73713524372349" fill="#fffc" r="0.2230588388194228"/><circle cx="37.422972483354336" cy="25.420829036488122" fill="#fff8" r="0.10502932960342123"/><circle cx="67.98935346941752" cy="11.498136929617464" fill="#fffb" r="0.08438974672105681"/><circle cx="42.1121331409418" cy="10.533681887836188" fill="#fff0" r="0.1127925379340835"/><circle cx="19.903147280005197" cy="23.478825329953978" fill="#fff2" r="0.015635795084188248"/><circle cx="48.61747713479445" cy="21.38589461530137" fill="#fff9" r="0.07077326277388243"/><circle cx="89.66510809824588" cy="71.022269886615" fill="#fff4" r="0.04326743603798344"/><circle cx="36.82968677809245" cy="22.503349664334525" fill="#fffc" r="0.21913936599364872"/><circle cx="4.470816058469862" cy="99.30556687252735" fill="#fff7" r="0.045431789889896435"/><circle cx="52.13208501760953" cy="37.412690718147005" fill="#fff0" r="0.023975743886177986"/><circle cx="39.84558659354539" cy="5.555484877620131" fill="#fff3" r="0.18205325937559838"/><circle cx="33.96597829141622" cy="7.553896358437163" fill="#fff2" r="0.24362037303197248"/><circle cx="38.41639860013083" cy="93.96597967282345" fill="#fff9" r="0.10115020073588424"/><circle cx="70.48488198573067" cy="54.760486485169004" fill="#fff4" r="0.07140655733169371"/><circle cx="54.84846245190601" cy="94.93824622127792" fill="#fffb" r="0.22896828806509154"/><circle cx="47.68097814108329" cy="11.6801405613847" fill="#fff8" r="0.008442670086867637"/><circle cx="58.80625234096861" cy="54.419027972264104" fill="#fff4" r="0.23506340450141855"/><circle cx="42.157027921637194" cy="40.18568182515608" fill="#fffc" r="0.011236611506388633"/><circle cx="75.0326465505417" cy="75.95394469052313" fill="#fff1" r="0.10486989985790449"/><circle cx="50.43229004871884" cy="77.29430646856164" fill="#fffa" r="0.03840187177043172"/><circle cx="60.614843807048736" cy="11.820947938178438" fill="#fff0" r="0.03177258273357164"/><circle cx="85.48222627108218" cy="39.23612956472699" fill="#fff1" r="0.16435227782552903"/><circle cx="76.94722581132545" cy="47.88590455693599" fill="#fff2" r="0.11528856015325653"/><circle cx="29.635690835834318" cy="50.65995172842865" fill="#fff7" r="0.06914945458612856"/><circle cx="64.70785219488826" cy="98.69403389995931" fill="#fffc" r="0.06872453288738484"/><circle cx="76.69707311779277" cy="34.276689377070454" fill="#fff3" r="0.06620133715699764"/><circle cx="69.13792990091106" cy="79.36685649316152" fill="#fffd" r="0.05990605929339404"/><circle cx="91.67418278196777" cy="57.26903996462437" fill="#fff4" r="0.18438367871648922"/><circle cx="22.85780154283521" cy="32.47942497057552" fill="#fff6" r="0.1149289682645036"/><circle cx="77.7579710408413" cy="93.22532064833214" fill="#fff8" r="0.19529088987294108"/><circle cx="12.159323302016622" cy="99.96485933613766" fill="#fff9" r="0.2271988325840335"/><circle cx="58.086471600994074" cy="95.15771928288348" fill="#fff3" r="0.19374266888394487"/><circle cx="75.29092715864508" cy="70.5672978602352" fill="#fff0" r="0.17615377387167924"/><circle cx="44.03189881710663" cy="72.99293308548351" fill="#fff4" r="0.23137227770680288"/><circle cx="47.224635547033735" cy="20.59048617183896" fill="#fffd" r="0.07059719541124124"/><circle cx="95.74199967046528" cy="17.812779771942843" fill="#fff1" r="0.0060441587127074425"/><circle cx="28.326687906270877" cy="47.33182043727627" fill="#fff2" r="0.12583749977282482"/><circle cx="45.30222583393589" cy="72.67747588304447" fill="#fff5" r="0.15760300063059476"/><circle cx="82.40651847437807" cy="13.57137605356703" fill="#fff6" r="0.025200861542831382"/><circle cx="36.11156660034026" cy="97.87498002096247" fill="#fff3" r="0.19683438349625001"/><circle cx="49.60350018181733" cy="17.089215807531875" fill="#fffc" r="0.18399974210769662"/><circle cx="6.603494923386122" cy="68.89958346170025" fill="#fff4" r="0.2356633057111911"/><circle cx="49.40259200826911" cy="64.87880479186539" fill="#fff5" r="0.21784449089182675"/><circle cx="9.641022553733947" cy="43.51414932886859" fill="#fffa" r="0.21481579467585543"/><circle cx="88.17263574045056" cy="12.759672036449599" fill="#fffd" r="0.24403434477643265"/><circle cx="8.849559030869658" cy="94.38226123352669" fill="#fff0" r="0.041107369988602205"/><circle cx="40.079816512697654" cy="54.903683745895016" fill="#fff7" r="0.08499146091855608"/><circle cx="88.7967271760291" cy="30.81183146276343" fill="#fff8" r="0.04523869570668704"/><circle cx="72.62278461909834" cy="5.440882928744307" fill="#fff1" r="0.16855348307270865"/><circle cx="9.484392976738231" cy="95.62706939510255" fill="#fff5" r="0.09640251306078473"/><circle cx="41.912006940952296" cy="13.080939276639613" fill="#fff9" r="0.12141351087882221"/><circle cx="31.186517463420603" cy="53.85263526921826" fill="#fffb" r="0.2347161819400876"/><circle cx="3.693567122167929" cy="77.62186197359738" fill="#fff5" r="0.15816591648465492"/><circle cx="4.849145768882879" cy="93.7442747272439" fill="#fff2" r="0.23557118972432722"/><circle cx="65.34897101877128" cy="77.90197425563646" fill="#fff8" r="0.034958644498915836"/><circle cx="78.07065010815533" cy="28.49857841201018" fill="#fffd" r="0.04645792678489838"/><circle cx="47.18295635798428" cy="80.36425959314425" fill="#fffc" r="0.02084542177643428"/><circle cx="51.29173924254668" cy="78.49394322813109" fill="#fff9" r="0.053071836757090096"/><circle cx="54.04889768881762" cy="89.3116239708204" fill="#fff8" r="0.2349215387045687"/><circle cx="63.570512610772944" cy="79.12216998146555" fill="#fff7" r="0.0035987687303532523"/><circle cx="82.44496607125856" cy="94.50883806437926" fill="#fff3" r="0.028195378037816465"/><circle cx="23.33582156695756" cy="62.66586343115811" fill="#fff0" r="0.011954631391937504"/><circle cx="35.89743873169342" cy="96.67587578484516" fill="#fffa" r="0.2476914870567424"/><circle cx="94.28117266653618" cy="26.89373989793664" fill="#fff6" r="0.08204448442352835"/><circle cx="4.513835503073649" cy="5.357565485955618" fill="#fffa" r="0.22891441807233104"/><circle cx="11.06470481413564" cy="84.72478711341411" fill="#fff8" r="0.05171879346314909"/><circle cx="18.73985745244543" cy="81.61825724418736" fill="#fff8" r="0.20537274670675087"/><circle cx="98.9569895385691" cy="78.57530653998903" fill="#fff7" r="0.21353612013534"/><circle cx="50.30076451258868" cy="59.83798763637381" fill="#fffb" r="0.031181911071556184"/><circle cx="85.1174777506934" cy="17.929648168692548" fill="#fff1" r="0.03960899088127426"/><circle cx="52.97810661558684" cy="26.556481948291676" fill="#fff3" r="0.13699516016633953"/><circle cx="38.363267023860374" cy="68.04084089006786" fill="#fffd" r="0.050667141070249"/><circle cx="61.91989112199497" cy="47.634066510340446" fill="#fff4" r="0.22981173602698352"/><circle cx="64.97243370808017" cy="68.26906114483464" fill="#fffa" r="0.06387091478297821"/><circle cx="76.70580226732594" cy="82.7518325828899" fill="#fffc" r="0.03457073738122329"/><circle cx="18.35990737411086" cy="0.2630613877344645" fill="#fff2" r="0.04011406823660074"/><circle cx="79.03791130514234" cy="7.467371231630682" fill="#fff1" r="0.17986098789674373"/><circle cx="63.243474140576936" cy="87.81576843587196" fill="#fff6" r="0.21615111049900773"/><circle cx="82.45140457213829" cy="85.8840586623573" fill="#fff4" r="0.037854212340999144"/><circle cx="79.29553957369968" cy="40.96672425037924" fill="#fff1" r="0.15822041553385796"/><circle cx="30.22443232038117" cy="68.13718537864459" fill="#fff6" r="0.12528318541607825"/><circle cx="82.18841255127096" cy="79.76524993326555" fill="#fff4" r="0.05813910392432056"/><circle cx="46.08102641218736" cy="31.81030622781509" fill="#fff8" r="0.08042789856400431"/><circle cx="89.84368957751988" cy="71.20017858155768" fill="#fff2" r="0.18872565796065202"/><circle cx="82.81499531389193" cy="47.25781115543748" fill="#fff7" r="0.0833247836673486"/><circle cx="21.93598966166812" cy="23.243680181587866" fill="#fff3" r="0.08105272831642815"/><circle cx="16.062862607056694" cy="86.99964605185168" fill="#fffd" r="0.07247405877018456"/><circle cx="82.51437806279235" cy="14.134942710970744" fill="#fff4" r="0.13682138688321152"/><circle cx="19.963558005308435" cy="45.76834984817848" fill="#fff7" r="0.1589584903749119"/><circle cx="10.105556404162497" cy="22.09054769323351" fill="#fffa" r="0.15053484622369978"/><circle cx="34.17245180715447" cy="89.4151216167274" fill="#fffc" r="0.15063579027532464"/><circle cx="62.59194444794861" cy="8.849790742546537" fill="#fff1" r="0.22875068550153205"/><circle cx="72.93294560306352" cy="24.844256967621337" fill="#fffd" r="0.15333907807876176"/><circle cx="2.2656978990289844" cy="12.500850748583082" fill="#fffb" r="0.14406265961112594"/><circle cx="47.69053864890837" cy="68.63758915624801" fill="#fff5" r="0.0908219080225672"/><circle cx="48.731788294645796" cy="21.374877087392985" fill="#fff6" r="0.010613359305638531"/><circle cx="11.771588742737704" cy="99.20262607553599" fill="#fff1" r="0.10960572937745983"/><circle cx="70.03516234603535" cy="95.321312753347" fill="#fff5" r="0.028585878138955967"/><circle cx="6.5499367145525405" cy="55.930071955077075" fill="#fffc" r="0.2464738154641323"/><circle cx="89.33989354730318" cy="63.476196955284856" fill="#fff2" r="0.07277012001175195"/><circle cx="35.327060571550426" cy="29.608563579999558" fill="#fffb" r="0.20364482930304995"/><circle cx="53.5541132049577" cy="23.40079349721239" fill="#fff8" r="0.017985408756485743"/><circle cx="62.34737152153792" cy="54.69493861614724" fill="#fff9" r="0.06555075579241804"/><circle cx="8.366627920088444" cy="63.860826565739295" fill="#fff4" r="0.046449474707426996"/><circle cx="95.9007852327984" cy="77.33861119922393" fill="#fffc" r="0.22331276802832548"/><circle cx="6.660857742025728" cy="90.55139250160224" fill="#fff3" r="0.1349673849891598"/><circle cx="75.5976094307244" cy="66.13407727383253" fill="#fff5" r="0.1387458777481812"/><circle cx="95.97019498435245" cy="35.20519337090635" fill="#fff3" r="0.17761220232887714"/><circle cx="99.69650105124697" cy="40.08135777503554" fill="#fff9" r="0.005345834192966803"/><circle cx="82.67117538121352" cy="52.348029870364186" fill="#fff5" r="0.22479143625268974"/><circle cx="57.73908539664833" cy="22.97949031343488" fill="#fff4" r="0.04642656516697449"/><circle cx="18.957409121754655" cy="29.299765251841237" fill="#fff0" r="0.2098119232768671"/><circle cx="34.588780590386136" cy="46.23017347891817" fill="#fff5" r="0.21142345118158098"/>
</svg>
