<svg xmlns="http://www.w3.org/2000/svg" viewBox="0 0 100 100">
  <circle cx="13.556755149926547" cy="70.38740615336633" fill="#fff5" r="0.3062334759288368"/><circle cx="37.77644976758887" cy="64.8450303299251" fill="#fff7" r="0.21132032568309672"/><circle cx="30.065930612854842" cy="3.360091674721144" fill="#fffe" r="0.3970844008641703"/><circle cx="90.37916227522071" cy="44.62132145435799" fill="#fffb" r="0.4534454297452972"/><circle cx="33.85196743784138" cy="51.68432039607465" fill="#fff8" r="0.015989947434867313"/><circle cx="30.59161617854097" cy="31.578522926237373" fill="#fff6" r="0.12400783109148206"/><circle cx="33.81707561214896" cy="37.345620889368966" fill="#ffff" r="0.0554879968044793"/><circle cx="99.1798305302538" cy="1.1127593116112222" fill="#fffd" r="0.4173871356425065"/><circle cx="12.248179491927779" cy="9.13546324551804" fill="#fffa" r="0.005237219300478435"/><circle cx="69.48046427728583" cy="55.80255846076207" fill="#fff3" r="0.3420202582099736"/><circle cx="29.863934038171635" cy="79.37133755872496" fill="#fffb" r="0.05254476421929716"/><circle cx="35.650366835897465" cy="71.15618970390489" fill="#fff1" r="0.4367568825087753"/><circle cx="54.0407680076025" cy="74.46202265403443" fill="#fff7" r="0.26056405191803217"/><circle cx="55.93840383356048" cy="63.715452214335365" fill="#fff3" r="0.18214237234413105"/><circle cx="47.87217034580215" cy="57.44231768650864" fill="#fff1" r="0.3987730041624033"/><circle cx="99.00906073735284" cy="6.802141740694312" fill="#fffe" r="0.48820935495916135"/><circle cx="26.86963510417202" cy="79.14877784054768" fill="#fff7" r="0.3317283973927173"/><circle cx="1.6789670628883813" cy="97.09922683408323" fill="#fff8" r="0.00015678715454292558"/><circle cx="8.438187852825873" cy="43.48792698364924" fill="#fff3" r="0.42460369466169073"/><circle cx="32.01401609491911" cy="22.453621469440886" fill="#fffb" r="0.1342353363356379"/><circle cx="72.58452235277059" cy="27.700145552542242" fill="#ffff" r="0.31048531891101916"/><circle cx="8.896784539450408" cy="8.186669250392264" fill="#fff3" r="0.3076496579338806"/><circle cx="30.085802432062703" cy="41.630250161161506" fill="#fff0" r="0.4839318919581243"/><circle cx="20.272931508817717" cy="81.88212914451793" fill="#fff8" r="0.18463467496345698"/><circle cx="33.06522037839548" cy="81.9593839260149" fill="#fff0" r="0.13221386075739155"/><circle cx="24.982375076194764" cy="82.82890755854203" fill="#fff3" r="0.08364279619698212"/><circle cx="80.98572078588255" cy="33.923242213122165" fill="#fffa" r="0.08712107176108286"/><circle cx="40.00400208579069" cy="48.60482771539921" fill="#fff5" r="0.13098662809872225"/><circle cx="96.68374580227295" cy="11.154865213709142" fill="#fff7" r="0.23265329750920444"/><circle cx="37.24885469018368" cy="84.58463003264227" fill="#fffa" r="0.4100735360297739"/><circle cx="10.55276803727201" cy="26.733183354669798" fill="#ffff" r="0.12645561380505782"/><circle cx="59.06095427852149" cy="98.59724032549025" fill="#fffe" r="0.4151429140488248"/><circle cx="45.61053842902274" cy="60.616456806491136" fill="#fffc" r="0.17932762375678657"/><circle cx="56.95438304590783" cy="95.5981375931957" fill="#fffe" r="0.4146743315745447"/><circle cx="0.7377942230189838" cy="72.34990269468999" fill="#fff3" r="0.3205791535904454"/><circle cx="72.5563986154163" cy="51.24984756263758" fill="#fff3" r="0.462377669819495"/><circle cx="74.03761781468162" cy="22.4452908287729" fill="#fff5" r="0.006014171331843177"/><circle cx="11.494412928529263" cy="40.32240411908374" fill="#fff4" r="0.027263779423788992"/><circle cx="43.79749659983374" cy="63.699260653182556" fill="#fff3" r="0.32430103684150213"/><circle cx="10.15317563104654" cy="68.84155439653567" fill="#fff0" r="0.3052013328910227"/><circle cx="14.356731105476916" cy="67.40182863264597" fill="#fff9" r="0.24023820442887184"/><circle cx="38.1057890801913" cy="14.041101156296488" fill="#ffff" r="0.013622405958170325"/><circle cx="1.3169825712485705" cy="20.824002248799623" fill="#fff9" r="0.367684873970925"/><circle cx="15.148720689089135" cy="21.60066303771221" fill="#fffa" r="0.4434655307781043"/><circle cx="80.01434403427035" cy="51.45391975862971" fill="#fffc" r="0.06461967380002376"/><circle cx="85.743357059344" cy="0.9582465968666853" fill="#fff6" r="0.005301844299774983"/><circle cx="34.75672515545251" cy="5.514721906382869" fill="#fffd" r="0.1482456731648336"/><circle cx="33.043376999206316" cy="61.781133764031615" fill="#fffa" r="0.07636940443215828"/><circle cx="83.52012516400916" cy="84.76308159362955" fill="#fffb" r="0.4612185691870452"/><circle cx="36.63048579635818" cy="57.32701381529286" fill="#fff8" r="0.30367094623148483"/><circle cx="84.81262990850894" cy="25.856163143836874" fill="#fff0" r="0.23822786342014363"/><circle cx="10.462604751269055" cy="94.94395313112821" fill="#ffff" r="0.49258425123715477"/><circle cx="85.43751886977346" cy="67.29595652099428" fill="#fff5" r="0.49524604310941045"/><circle cx="58.353111123403664" cy="59.65616970458266" fill="#fff0" r="0.3873153480564239"/><circle cx="0.5293999993866483" cy="6.348795520804451" fill="#fff4" r="0.31481898636049577"/><circle cx="50.22338621070057" cy="80.3294598191895" fill="#ffff" r="0.16990928369087288"/><circle cx="90.28158740126774" cy="38.81427727127428" fill="#fff1" r="0.007783772066106809"/><circle cx="91.42434565402885" cy="54.19575145888113" fill="#fff5" r="0.341989755940325"/><circle cx="68.86209393426276" cy="88.70367508467943" fill="#fffc" r="0.03899591247200346"/><circle cx="28.27807048808748" cy="53.77022951025572" fill="#fff1" r="0.46477231460591095"/>
</svg>
